<?xml version="1.0" standalone="no"?>
<!DOCTYPE svg PUBLIC "-//W3C//DTD SVG 20010904//EN"
 "http://www.w3.org/TR/2001/REC-SVG-20010904/DTD/svg10.dtd">
<svg version="1.0" xmlns="http://www.w3.org/2000/svg"
 viewBox="0 0 2600.000000 2600.000000"
 preserveAspectRatio="xMidYMid meet">
<metadata>
Created by potrace 1.15, written by Peter Selinger 2001-2017
</metadata>
<g transform="translate(0.000000,2600.000000) scale(0.100000,-0.100000)"
fill="#FFFFFF" stroke="none">
<path d="M9595 20401 c-182 -52 -321 -195 -370 -381 -13 -48 -15 -659 -15
-4600 l0 -4545 -363 -1 c-386 -1 -643 -13 -956 -45 -1273 -129 -2148 -506
-2588 -1116 -78 -108 -182 -316 -223 -443 -134 -420 -109 -969 63 -1396 52
-128 63 -152 125 -254 210 -347 540 -621 937 -779 202 -79 405 -129 646 -157
195 -22 553 -15 754 16 532 81 1004 278 1405 588 161 124 403 380 547 577 413
567 660 1282 713 2065 6 89 10 1214 10 2923 l0 2777 3715 0 3715 0 0 -2377 0
-2378 -368 -1 c-202 -1 -452 -7 -557 -13 -928 -57 -1633 -217 -2185 -497 -259
-131 -433 -255 -615 -439 -268 -270 -425 -592 -476 -975 -16 -119 -16 -437 0
-550 65 -464 220 -803 501 -1094 115 -119 202 -192 337 -280 274 -179 620
-297 1003 -342 196 -22 554 -15 755 16 665 101 1242 388 1668 829 588 610 938
1462 997 2427 8 126 10 1628 8 5099 -3 4768 -4 4922 -22 4975 -66 197 -200
327 -383 375 -50 13 -583 15 -4388 14 -4068 0 -4334 -1 -4390 -18z m8115
-3176 l0 -495 -3715 0 -3715 0 0 495 0 495 3715 0 3715 0 0 -495z m-9272
-8927 c103 -49 158 -145 150 -262 -7 -109 -78 -190 -294 -335 -249 -168 -558
-279 -920 -331 -264 -39 -691 -37 -787 4 -202 84 -209 373 -12 479 38 21 50
22 285 19 343 -5 541 20 787 99 186 60 333 140 480 261 40 33 89 66 110 74 60
21 149 18 201 -8z m8417 1 c105 -49 161 -145 153 -263 -7 -109 -78 -190 -294
-335 -251 -169 -556 -278 -929 -333 -200 -30 -656 -33 -745 -6 -229 70 -257
377 -45 491 38 21 50 22 285 19 343 -5 541 20 787 99 186 60 333 140 480 261
40 33 89 66 110 74 58 20 146 17 198 -7z"/>
</g>
</svg>
