<?xml version="1.0" standalone="no"?>
<!DOCTYPE svg PUBLIC "-//W3C//DTD SVG 20010904//EN"
 "http://www.w3.org/TR/2001/REC-SVG-20010904/DTD/svg10.dtd">
<svg version="1.0" xmlns="http://www.w3.org/2000/svg"
 viewBox="0 0 2600.000000 2600.000000"
 preserveAspectRatio="xMidYMid meet">
<metadata>
Created by potrace 1.15, written by Peter Selinger 2001-2017
</metadata>
<g transform="translate(0.000000,2600.000000) scale(0.100000,-0.100000)"
fill="#FFFFFF" stroke="none">
<path d="M11955 20469 c-935 -129 -1521 -1069 -1223 -1963 172 -518 624 -904
1166 -997 641 -109 1284 211 1581 790 127 248 187 549 162 811 -37 376 -188
690 -456 948 -211 204 -446 329 -737 393 -109 23 -382 34 -493 18z"/>
<path d="M6605 18923 c-660 -151 -1202 -277 -1204 -279 -2 -2 114 -520 258
-1150 144 -630 260 -1148 258 -1151 -3 -2 -45 3 -93 13 -274 51 -608 -47 -811
-239 -215 -203 -268 -477 -133 -688 124 -192 377 -301 663 -286 129 7 209 24
322 69 168 66 306 172 394 303 68 103 92 171 98 280 5 89 3 99 -212 1019 -119
511 -213 932 -208 936 11 9 1791 415 1797 409 7 -7 308 -1331 303 -1335 -2 -3
-33 2 -68 11 -84 19 -276 19 -371 0 -251 -53 -461 -186 -579 -369 -205 -316
-62 -672 322 -800 110 -37 249 -51 368 -38 347 40 627 229 736 497 25 60 29
84 30 170 0 96 -12 153 -320 1502 -252 1107 -323 1403 -335 1402 -8 0 -555
-124 -1215 -276z"/>
<path d="M16913 17791 c-120 -75 -80 -254 60 -268 53 -5 103 20 135 67 20 29
23 44 20 88 -4 45 -10 59 -41 89 -30 31 -44 37 -89 40 -41 3 -60 -1 -85 -16z"/>
<path d="M17089 17282 c-178 -173 -413 -402 -521 -509 l-197 -194 171 -225
c94 -123 175 -224 180 -224 9 0 1235 705 1250 719 5 4 -381 524 -538 723 l-20
26 -325 -316z"/>
<path d="M16610 17462 c-55 -27 -83 -77 -78 -138 5 -58 29 -97 75 -119 103
-50 223 31 209 143 -8 57 -36 96 -86 116 -52 20 -77 20 -120 -2z"/>
<path d="M16320 17138 c-111 -31 -142 -170 -55 -247 65 -57 171 -41 215 32 68
111 -35 249 -160 215z"/>
<path d="M12010 17079 c-449 -26 -927 -196 -1125 -399 -21 -22 -43 -40 -47
-40 -5 0 -608 -483 -1342 -1074 -1322 -1065 -1333 -1075 -1354 -1128 -12 -29
-27 -73 -33 -98 -18 -64 -15 -223 5 -304 40 -168 42 -170 588 -908 283 -381
548 -745 590 -808 164 -250 341 -392 523 -422 182 -30 399 90 466 259 33 84
33 264 0 377 -34 116 -82 224 -160 360 -192 337 -584 1080 -610 1159 -17 48
-29 87 -28 87 1 0 40 7 86 15 46 8 151 20 234 27 l150 12 276 161 c315 184
287 181 290 37 l1 -73 52 28 c35 19 114 90 238 214 195 195 257 247 487 402
264 177 441 264 640 314 94 24 128 27 268 27 182 1 271 -14 425 -71 205 -75
440 -228 625 -404 l60 -58 450 335 c247 184 452 340 456 347 4 7 -152 258
-365 589 -345 536 -376 581 -444 642 -88 78 -150 120 -259 175 -229 116 -553
201 -820 216 -54 3 -120 7 -148 9 -27 1 -106 -1 -175 -5z"/>
<path d="M17863 16545 c-79 -34 -100 -156 -40 -224 26 -28 76 -51 113 -51 44
0 102 40 124 85 25 51 25 69 0 122 -33 74 -117 103 -197 68z"/>
<path d="M14717 15350 l-1437 -1070 -163 163 c-195 196 -336 305 -502 387
-240 119 -425 137 -660 63 -116 -36 -257 -112 -450 -241 -216 -145 -264 -185
-460 -382 -176 -177 -271 -249 -408 -307 -101 -42 -265 -86 -412 -108 -60 -9
-127 -20 -147 -23 l-38 -7 181 -335 c99 -184 200 -369 224 -410 151 -259 235
-514 235 -719 l1 -76 251 -330 c138 -181 259 -343 269 -360 42 -67 10 -169
-63 -206 -47 -24 -111 -22 -152 5 -14 9 -112 131 -218 271 -159 210 -195 252
-203 239 -37 -62 -133 -168 -190 -211 -288 -216 -653 -229 -955 -35 -167 107
-300 246 -444 462 -121 182 -645 885 -659 885 -21 0 -115 -196 -157 -325 -62
-194 -74 -276 -74 -495 0 -216 19 -355 79 -564 122 -427 391 -903 758 -1341
430 -513 904 -833 1399 -944 309 -69 590 -55 889 44 121 40 257 104 356 167
180 113 385 313 502 488 120 180 172 295 241 540 126 447 246 693 413 852 87
82 153 121 372 219 88 39 196 92 239 118 202 120 462 347 555 484 58 86 106
191 132 287 29 107 31 312 5 435 -43 202 -155 465 -290 684 -37 60 -64 112
-59 116 4 4 638 495 1408 1090 770 596 1406 1088 1413 1095 10 9 -22 58 -159
238 -95 125 -175 227 -178 227 -3 0 -653 -482 -1444 -1070z m-2557 -1670 c402
-97 679 -490 631 -895 -23 -198 -100 -355 -240 -496 -256 -256 -620 -317 -946
-159 -172 83 -307 218 -386 386 -63 133 -74 187 -74 364 0 149 2 159 33 249
100 288 326 492 617 556 95 21 265 18 365 -5z"/>
<path d="M17475 16355 c-110 -38 -137 -167 -51 -243 47 -41 94 -48 151 -23 56
25 85 70 85 131 0 100 -91 167 -185 135z"/>
<path d="M17040 16148 c-98 -51 -107 -168 -20 -242 26 -21 42 -26 86 -26 50 0
59 4 96 38 35 33 41 45 45 88 6 66 -19 112 -77 142 -24 12 -54 22 -65 22 -11
0 -41 -10 -65 -22z"/>
<path d="M15930 15021 c-484 -359 -1483 -1120 -1769 -1348 -2 -1 24 -61 58
-133 75 -157 144 -361 166 -490 10 -52 20 -102 24 -110 10 -20 68 -38 160 -51
168 -23 359 29 517 142 151 108 139 92 654 904 424 669 496 788 600 995 149
297 264 562 249 574 -2 2 -299 -216 -659 -483z"/>
<path d="M17256 12768 c-3 -7 -123 -604 -268 -1325 -144 -722 -266 -1313 -271
-1313 -4 0 -31 17 -60 39 -103 76 -230 135 -372 171 -463 118 -929 -70 -1053
-424 -31 -91 -35 -230 -8 -321 98 -328 436 -571 857 -616 272 -30 568 61 731
224 67 67 124 156 147 232 11 34 110 517 221 1072 112 556 206 1017 211 1024
12 19 184 25 274 9 232 -41 419 -178 580 -425 90 -139 198 -251 295 -308 125
-72 316 -115 460 -102 75 6 158 22 130 24 -35 3 -135 52 -186 91 -141 110
-272 344 -359 640 -18 64 -52 206 -74 316 -63 303 -110 435 -210 592 -71 111
-204 236 -307 289 -152 79 -328 114 -482 95 -76 -9 -153 -1 -235 24 -9 3 -19
0 -21 -8z"/>
<path d="M13620 11503 c-99 -67 -217 -129 -389 -205 -86 -37 -179 -84 -208
-104 -130 -89 -226 -285 -352 -715 -78 -269 -145 -421 -265 -609 l-42 -65 533
-2055 c293 -1130 539 -2095 548 -2145 38 -222 183 -388 382 -440 265 -69 542
120 599 408 l14 72 -365 2915 c-200 1603 -367 2930 -371 2948 -3 18 -9 34 -13
36 -3 2 -35 -16 -71 -41z"/>
<path d="M11742 9225 c-201 -125 -455 -226 -677 -269 -202 -39 -381 -45 -597
-20 -77 9 -141 14 -143 12 -1 -1 -87 -743 -190 -1648 -126 -1111 -185 -1661
-181 -1696 33 -289 313 -500 588 -443 188 39 354 211 389 404 6 33 208 879
450 1880 241 1001 437 1821 435 1822 -1 1 -34 -17 -74 -42z"/>
</g>
</svg>
