<?xml version="1.0" standalone="no"?>
<!DOCTYPE svg PUBLIC "-//W3C//DTD SVG 20010904//EN"
 "http://www.w3.org/TR/2001/REC-SVG-20010904/DTD/svg10.dtd">
<svg version="1.0" xmlns="http://www.w3.org/2000/svg"
 viewBox="0 0 2600.000000 2600.000000"
 preserveAspectRatio="xMidYMid meet">
<metadata>
Created by potrace 1.15, written by Peter Selinger 2001-2017
</metadata>
<g transform="translate(0.000000,2600.000000) scale(0.100000,-0.100000)"
fill="#FFFFFF" stroke="none">
<path d="M11108 21790 c-262 -20 -484 -66 -739 -150 -462 -154 -830 -381
-1179 -730 -499 -499 -786 -1098 -871 -1815 -16 -138 -17 -507 0 -640 84 -691
362 -1284 828 -1765 200 -206 359 -336 582 -475 433 -270 945 -429 1446 -451
88 -3 181 -14 250 -29 152 -33 326 -62 480 -79 1614 -187 3628 395 5117 1478
56 41 104 73 105 72 2 -2 -965 -3267 -2148 -7257 -1183 -3989 -2153 -7266
-2156 -7281 l-6 -28 139 5 c77 4 343 12 593 20 250 8 457 18 461 22 6 7 5360
17840 5360 17854 0 3 -253 -30 -562 -72 -310 -43 -568 -78 -574 -79 -6 0 -18
-17 -28 -37 -34 -73 -161 -299 -234 -418 -438 -707 -1063 -1344 -1812 -1845
-584 -391 -1230 -695 -1875 -885 -188 -55 -444 -119 -451 -113 -2 3 23 49 57
102 217 346 363 757 426 1201 27 189 24 613 -6 805 -65 425 -201 802 -416
1155 -216 354 -553 704 -910 942 -388 259 -862 430 -1335 482 -137 15 -418 21
-542 11z"/>
</g>
</svg>
