<?xml version="1.0" standalone="no"?>
<!DOCTYPE svg PUBLIC "-//W3C//DTD SVG 20010904//EN"
 "http://www.w3.org/TR/2001/REC-SVG-20010904/DTD/svg10.dtd">
<svg version="1.0" xmlns="http://www.w3.org/2000/svg"
 viewBox="0 0 2604.000000 2604.000000"
 preserveAspectRatio="xMidYMid meet">
<metadata>
Created by potrace 1.13, written by Peter Selinger 2001-2015
</metadata>
<g transform="translate(0.000000,2604.000000) scale(0.100000,-0.100000)"
fill="#FFFFFF" stroke="none">
<path d="M13755 24064 c-27 -2 -135 -8 -240 -14 -613 -34 -1330 -125 -2055
-261 -207 -38 -719 -149 -865 -187 l-70 -18 -3 -8802 c-1 -4841 -5 -8802 -10
-8802 -4 0 -39 7 -77 15 -279 58 -634 5 -950 -144 -350 -165 -625 -427 -770
-733 -59 -124 -85 -228 -92 -359 -25 -482 385 -813 976 -786 768 34 1501 662
1502 1287 0 58 -4 126 -10 152 -34 147 -112 282 -217 375 l-64 57 0 8476 0
8477 138 51 c732 267 1553 462 2222 528 215 21 653 24 820 5 282 -31 512 -93
715 -191 425 -205 545 -478 389 -885 -54 -138 -156 -326 -350 -642 -341 -554
-456 -794 -525 -1090 -30 -128 -37 -378 -15 -497 54 -284 179 -508 394 -706
432 -398 1209 -648 2282 -735 735 -59 2077 -33 3716 71 l101 7 6 -3948 c9
-5263 9 -10735 -1 -10735 -4 0 -39 7 -77 15 -108 22 -258 29 -380 16 -571 -61
-1105 -411 -1330 -874 -79 -163 -100 -250 -99 -417 0 -119 3 -144 27 -215 37
-111 90 -197 173 -279 238 -238 658 -317 1092 -205 621 160 1116 643 1182
1155 29 225 -45 433 -213 597 l-80 79 5 8809 c2 4845 3 8809 1 8809 -1 0 -62
-20 -135 -44 -272 -91 -489 -121 -858 -121 -376 1 -675 44 -1044 149 -456 132
-715 263 -922 470 -152 153 -243 303 -388 641 -173 403 -298 594 -509 780
-396 349 -1086 560 -2127 651 -133 11 -330 17 -700 19 -283 1 -537 1 -565 -1z"/>
</g>
</svg>
