<?xml version="1.0" standalone="no"?>
<!DOCTYPE svg PUBLIC "-//W3C//DTD SVG 20010904//EN"
 "http://www.w3.org/TR/2001/REC-SVG-20010904/DTD/svg10.dtd">
<svg version="1.0" xmlns="http://www.w3.org/2000/svg"
 viewBox="0 0 2600.000000 2600.000000"
 preserveAspectRatio="xMidYMid meet">
<metadata>
Created by potrace 1.15, written by Peter Selinger 2001-2017
</metadata>
<g transform="translate(0.000000,2600.000000) scale(0.100000,-0.100000)"
fill="#FFFFFF" stroke="none">
<path d="M7101 21683 c-25 -9 -66 -37 -92 -63 -39 -39 -52 -62 -70 -120 -19
-64 -21 -88 -16 -204 4 -105 12 -157 40 -266 131 -506 495 -1235 1100 -2210
193 -311 630 -967 634 -953 9 26 -150 754 -267 1223 -327 1312 -660 2161 -970
2470 -123 122 -247 165 -359 123z"/>
<path d="M11180 20576 c-64 -17 -110 -47 -174 -116 -227 -246 -456 -829 -690
-1757 -95 -377 -256 -1127 -256 -1191 0 -31 305 439 550 848 550 916 840 1582
840 1931 0 142 -39 228 -122 267 -59 27 -95 32 -148 18z"/>
<path d="M9409 20411 c-136 -44 -210 -239 -228 -597 -19 -398 34 -981 154
-1690 44 -258 122 -664 129 -671 14 -14 160 808 211 1190 135 1008 96 1619
-109 1746 -38 24 -117 35 -157 22z"/>
<path d="M14600 18576 c-610 -110 -1673 -661 -3027 -1568 -155 -104 -285 -193
-287 -197 -7 -10 -2 -9 264 46 339 69 638 138 1005 230 1066 267 1839 546
2240 808 111 72 262 221 296 290 34 72 38 166 9 234 -27 62 -92 123 -158 146
-63 23 -245 28 -342 11z"/>
<path d="M7030 18542 c-52 -28 -80 -75 -80 -133 0 -217 342 -580 1025 -1089
289 -215 681 -487 690 -478 8 7 -270 410 -452 656 -319 430 -632 782 -828 930
-150 113 -281 155 -355 114z"/>
<path d="M11745 18542 c-211 -73 -544 -405 -964 -962 -204 -270 -532 -740
-516 -740 10 0 331 218 513 348 373 268 677 517 882 722 154 154 224 242 280
354 33 64 40 89 40 136 0 128 -100 189 -235 142z"/>
<path d="M5104 18016 c-115 -28 -179 -104 -179 -211 1 -77 28 -130 109 -210
260 -259 1019 -538 2177 -801 226 -51 792 -165 797 -160 4 4 -387 261 -583
383 -949 590 -1656 929 -2080 998 -106 18 -171 18 -241 1z"/>
<path d="M9410 16388 c-200 -30 -336 -233 -286 -428 58 -225 292 -334 498
-232 77 38 128 91 166 172 37 80 37 202 0 282 -70 150 -216 229 -378 206z"/>
<path d="M5575 16320 c-325 -37 -485 -128 -485 -277 0 -60 19 -101 68 -145 50
-45 78 -60 167 -87 388 -120 1292 -54 2525 185 102 20 189 39 193 44 8 7 -229
56 -558 114 -342 61 -771 121 -1090 151 -197 19 -703 28 -820 15z"/>
<path d="M12710 16320 c-457 -35 -1038 -118 -1618 -232 -117 -22 -209 -44
-205 -48 18 -17 676 -136 1043 -189 482 -70 783 -95 1130 -95 300 0 409 12
554 58 149 47 218 114 224 220 3 54 0 66 -27 108 -50 79 -163 131 -355 164
-108 19 -567 27 -746 14z"/>
<path d="M10940 15433 c44 -35 449 -296 675 -435 1113 -685 1894 -1011 2222
-929 67 17 135 75 159 136 36 95 -1 190 -117 299 -195 183 -622 369 -1289 562
-404 117 -1043 268 -1475 348 -77 15 -153 29 -170 32 l-30 6 25 -19z"/>
<path d="M7505 15253 c-795 -163 -1646 -380 -2195 -558 -972 -317 -1478 -623
-1498 -906 -8 -111 45 -207 141 -253 85 -41 169 -52 300 -38 502 53 1386 477
2607 1250 175 111 728 478 770 512 31 25 25 24 -125 -7z"/>
<path d="M8510 15143 c-688 -466 -1234 -918 -1432 -1184 -145 -195 -168 -344
-63 -409 51 -32 87 -34 162 -12 245 75 670 526 1199 1272 135 190 297 431 292
435 -2 2 -73 -44 -158 -102z"/>
<path d="M10260 15245 c0 -18 315 -468 496 -710 353 -471 632 -773 852 -922
73 -50 178 -93 226 -93 39 1 105 38 126 72 30 48 24 144 -14 221 -136 278
-687 762 -1483 1301 -112 76 -203 135 -203 131z"/>
<path d="M18502 14835 c-190 -59 -398 -413 -602 -1024 -150 -450 -305 -1064
-429 -1696 -28 -143 -53 -268 -55 -277 -2 -10 -2 -18 0 -18 7 0 255 381 401
615 252 406 448 752 613 1085 348 703 438 1129 269 1274 -36 30 -104 57 -141
55 -7 0 -32 -6 -56 -14z"/>
<path d="M9457 14608 c-41 -166 -160 -857 -201 -1169 -96 -707 -104 -1257 -25
-1524 41 -138 105 -222 186 -244 47 -13 49 -13 97 0 275 76 315 802 115 2084
-47 300 -151 861 -163 872 -2 2 -6 -6 -9 -19z"/>
<path d="M8738 14387 c-882 -1338 -1350 -2364 -1242 -2726 40 -135 179 -197
306 -137 253 120 531 749 798 1801 113 443 277 1202 268 1241 -2 7 -60 -73
-130 -179z"/>
<path d="M10230 14216 c0 -28 126 -618 191 -896 257 -1097 549 -1987 801
-2444 129 -235 279 -410 394 -463 85 -38 161 -38 239 2 112 58 157 151 156
325 -1 412 -314 1142 -934 2180 -302 506 -847 1339 -847 1296z"/>
<path d="M15371 13928 c-51 -14 -80 -37 -104 -82 -34 -63 -31 -217 7 -351 96
-341 357 -850 764 -1490 141 -221 314 -476 319 -471 5 5 -87 432 -143 666
-170 707 -372 1281 -535 1524 -107 158 -214 230 -308 204z"/>
<path d="M16756 13099 c-111 -97 -132 -440 -61 -1006 34 -271 125 -796 140
-812 3 -2 5 -2 5 1 0 3 11 61 25 129 109 536 172 1129 147 1386 -16 159 -43
246 -92 295 -33 33 -44 38 -83 38 -37 0 -53 -6 -81 -31z"/>
<path d="M14442 12841 c-81 -51 -93 -150 -34 -267 138 -274 622 -701 1406
-1241 194 -134 246 -167 246 -160 0 2 -64 98 -143 213 -544 795 -984 1296
-1261 1436 -81 41 -167 48 -214 19z"/>
<path d="M19045 12835 c-103 -43 -194 -114 -376 -295 -232 -230 -427 -467
-711 -862 -163 -228 -354 -513 -336 -502 52 31 313 209 458 312 681 485 1105
883 1200 1122 29 74 25 158 -11 196 -56 60 -126 69 -224 29z"/>
<path d="M12530 12321 c-70 -25 -123 -82 -140 -151 -71 -294 554 -618 1800
-934 369 -93 1206 -273 1218 -261 2 2 -68 50 -155 107 -993 654 -1820 1088
-2319 1219 -158 41 -322 49 -404 20z"/>
<path d="M20000 11971 c-294 -66 -787 -303 -1350 -651 -184 -114 -681 -442
-677 -447 5 -5 250 46 538 113 1059 244 1733 518 1844 749 42 87 12 185 -69
227 -58 30 -175 34 -286 9z"/>
<path d="M16760 10661 c-71 -23 -140 -82 -176 -151 -28 -52 -26 -181 3 -236
75 -140 232 -193 372 -123 202 101 201 387 -3 491 -44 23 -153 33 -196 19z"/>
<path d="M14455 10573 c-244 -19 -355 -76 -355 -180 0 -176 368 -225 1047
-138 273 35 785 124 800 139 6 5 -22 11 -232 50 -554 101 -1017 149 -1260 129z"/>
<path d="M18955 10574 c-294 -21 -505 -46 -770 -90 -184 -30 -467 -86 -462
-90 14 -15 545 -107 797 -138 575 -73 915 -54 1018 56 45 49 45 116 0 166 -31
34 -93 60 -181 77 -75 14 -312 26 -402 19z"/>
<path d="M15456 9870 c-775 -167 -1443 -368 -1781 -537 -216 -109 -353 -226
-374 -321 -13 -64 0 -112 43 -155 168 -169 749 43 1676 611 179 110 680 439
680 447 0 7 10 9 -244 -45z"/>
<path d="M18260 9814 c0 -7 381 -255 615 -401 531 -330 1064 -619 1425 -772
161 -68 420 -154 534 -176 114 -22 274 -18 326 9 87 45 139 135 126 218 -39
244 -524 501 -1431 759 -396 113 -889 229 -1350 318 -115 23 -218 43 -227 45
-10 2 -18 2 -18 0z"/>
<path d="M15854 9482 c-344 -233 -690 -492 -934 -701 -134 -114 -357 -339
-423 -426 -88 -117 -122 -194 -122 -277 0 -65 2 -69 37 -105 32 -32 44 -37 95
-41 42 -3 73 2 110 16 226 86 604 484 1075 1132 139 192 361 520 356 526 -3 2
-90 -54 -194 -124z"/>
<path d="M17634 9583 c28 -55 321 -472 476 -678 346 -461 614 -750 825 -889
106 -70 159 -90 230 -84 48 4 62 10 92 41 31 30 37 44 41 92 6 68 -13 122 -77
222 -129 201 -429 481 -876 819 -215 163 -703 504 -720 504 -3 0 1 -12 9 -27z"/>
<path d="M16796 9323 c-96 -507 -138 -855 -140 -1163 0 -193 11 -295 45 -386
42 -113 142 -151 216 -82 110 103 130 446 57 1018 -32 256 -123 783 -138 797
-2 2 -20 -81 -40 -184z"/>
<path d="M17314 9240 c3 -14 22 -104 42 -200 47 -229 131 -582 189 -795 265
-974 523 -1448 755 -1385 210 56 163 403 -133 995 -183 366 -480 865 -765
1280 -89 131 -95 138 -88 105z"/>
<path d="M16103 8743 c-82 -125 -211 -327 -285 -448 -857 -1393 -1132 -2223
-776 -2341 300 -99 628 519 953 1799 89 350 272 1203 261 1215 -2 1 -71 -100
-153 -225z"/>
</g>
</svg>
