<?xml version="1.0" standalone="no"?>
<!DOCTYPE svg PUBLIC "-//W3C//DTD SVG 20010904//EN"
 "http://www.w3.org/TR/2001/REC-SVG-20010904/DTD/svg10.dtd">
<svg version="1.0" xmlns="http://www.w3.org/2000/svg"
 viewBox="0 0 2600.000000 2600.000000"
 preserveAspectRatio="xMidYMid meet">
<metadata>
Created by potrace 1.15, written by Peter Selinger 2001-2017
</metadata>
<g transform="translate(0.000000,2600.000000) scale(0.100000,-0.100000)"
fill="#FFFFFF" stroke="none">
<path d="M6995 23156 c-302 -80 -622 -361 -862 -759 -416 -690 -590 -1655
-477 -2647 58 -512 193 -1048 391 -1549 81 -205 72 -186 477 -1023 209 -433
335 -702 330 -710 -4 -7 -123 -188 -264 -403 -566 -861 -843 -1322 -1110
-1850 -859 -1700 -1003 -3173 -449 -4590 235 -602 619 -1152 1090 -1560 901
-781 2109 -1093 3386 -875 457 77 933 231 1372 441 90 44 167 79 171 79 7 0
118 -234 412 -870 381 -822 631 -1385 687 -1545 157 -444 98 -869 -175 -1256
-70 -100 -220 -258 -323 -341 -237 -191 -541 -337 -827 -398 -187 -40 -477
-37 -615 5 -47 14 -47 14 36 41 75 24 200 88 274 141 457 326 616 1022 346
1518 -192 353 -487 654 -778 795 -45 21 -123 53 -174 69 -823 268 -1767 -423
-1863 -1364 -24 -235 24 -501 130 -722 83 -171 248 -382 451 -578 392 -377
781 -571 1309 -652 177 -27 626 -24 855 5 199 26 415 63 570 98 659 148 1192
584 1515 1239 165 335 249 678 250 1015 0 217 -28 375 -96 545 -61 153 -584
1274 -1044 2235 -127 267 -233 490 -236 495 -2 6 39 48 91 94 102 90 284 286
384 413 305 387 532 867 652 1376 104 446 148 1043 94 1292 -23 107 -95 318
-150 440 -170 378 -480 803 -792 1087 -584 530 -1223 784 -1913 760 -274 -10
-489 -50 -768 -143 -90 -30 -165 -54 -167 -54 -3 0 -57 105 -121 233 -137 274
-477 937 -647 1262 l-120 230 18 30 c118 201 177 312 295 550 149 300 234 496
336 777 554 1528 533 3138 -62 4642 -83 210 -235 530 -333 701 -377 657 -852
1134 -1251 1260 -102 32 -231 41 -305 21z m740 -2026 c191 -27 332 -161 423
-403 244 -646 41 -1846 -493 -2919 -100 -200 -287 -530 -296 -520 -9 9 -109
323 -153 482 -126 451 -206 853 -257 1275 -27 230 -37 718 -20 928 39 456 155
802 332 992 93 99 187 150 309 165 79 11 78 11 155 0z m431 -7354 c179 -373
322 -681 317 -686 -4 -4 -44 -31 -88 -60 -425 -282 -746 -634 -926 -1015 -408
-864 -156 -1918 650 -2726 362 -362 766 -605 1179 -710 163 -41 280 -56 332
-40 97 29 157 133 131 229 -15 56 -48 102 -87 122 -123 63 -375 225 -519 333
-401 303 -656 632 -747 965 -18 65 -21 105 -22 252 0 212 14 273 104 457 126
257 345 487 635 668 42 26 78 46 80 43 5 -5 679 -1417 1092 -2288 174 -366
344 -724 378 -796 l62 -131 -139 -83 c-430 -254 -756 -371 -1218 -435 -153
-22 -567 -31 -738 -16 -727 61 -1353 324 -1863 784 -397 358 -617 832 -669
1442 -86 1027 372 2429 1209 3695 142 215 501 694 512 683 4 -4 155 -313 335
-687z m2325 -1889 c372 -97 862 -454 1083 -791 105 -160 221 -448 270 -668 52
-239 57 -441 15 -651 -59 -295 -179 -524 -427 -816 l-30 -35 -30 60 c-16 32
-117 241 -225 464 -276 574 -665 1374 -945 1945 -133 269 -239 491 -237 493 2
2 52 10 112 17 148 19 295 13 414 -18z"/>
<path d="M15806 18432 c-538 -1577 -982 -2877 -987 -2890 l-9 -23 -30 21 c-50
36 -250 128 -345 159 -472 153 -1026 101 -1511 -142 -443 -222 -725 -576 -785
-982 -38 -263 68 -553 281 -764 334 -334 945 -477 1525 -359 561 114 1031 480
1295 1007 29 58 63 134 77 170 20 53 1643 4799 1643 4805 0 1 1014 -99 2253
-221 1238 -122 2255 -222 2258 -223 5 0 -1318 -3888 -1326 -3898 -2 -2 -21 8
-42 21 -146 92 -357 172 -568 214 -142 28 -529 26 -686 -4 -347 -67 -653 -199
-890 -385 -450 -353 -611 -869 -404 -1290 127 -256 375 -462 680 -563 585
-195 1212 -118 1700 210 348 234 593 560 748 995 154 431 2188 6412 2183 6417
-6 7 -5983 592 -6046 593 l-35 0 -979 -2868z"/>
</g>
</svg>
