<?xml version="1.0" standalone="no"?>
<!DOCTYPE svg PUBLIC "-//W3C//DTD SVG 20010904//EN"
 "http://www.w3.org/TR/2001/REC-SVG-20010904/DTD/svg10.dtd">
<svg version="1.0" xmlns="http://www.w3.org/2000/svg"
 viewBox="0 0 2600.000000 2600.000000"
 preserveAspectRatio="xMidYMid meet">
<metadata>
Created by potrace 1.15, written by Peter Selinger 2001-2017
</metadata>
<g transform="translate(0.000000,2600.000000) scale(0.100000,-0.100000)"
fill="#FFFFFF" stroke="none">
<path d="M14200 20710 c-472 -66 -874 -346 -1078 -750 -23 -47 -796 -1936
-1716 -4198 -921 -2263 -1677 -4116 -1679 -4118 -3 -3 -44 17 -91 45 -93 53
-237 103 -350 122 -97 16 -332 6 -421 -19 -297 -81 -538 -268 -674 -524 -56
-105 -484 -1178 -510 -1278 -28 -109 -38 -289 -22 -401 20 -135 82 -306 151
-415 12 -19 -16 -94 -283 -760 -164 -407 -307 -775 -319 -819 -31 -114 -31
-384 -1 -495 36 -128 80 -231 141 -325 120 -185 250 -295 487 -411 153 -76
232 -125 723 -455 427 -288 630 -403 823 -470 52 -18 118 -48 147 -67 60 -38
1194 -497 1330 -539 76 -23 104 -26 227 -26 171 0 253 19 400 93 172 86 299
213 385 385 123 245 128 482 15 766 -4 12 9 22 54 41 80 35 162 91 239 163
259 242 342 624 208 957 l-24 59 63 28 c223 102 397 297 469 528 66 212 54
399 -39 634 -5 13 11 24 69 52 225 107 388 298 462 542 25 82 28 104 28 250 0
149 -2 166 -28 245 -74 224 -209 397 -392 504 -43 25 -226 105 -408 177 -182
73 -335 135 -339 139 -4 4 766 1908 1711 4231 946 2323 1732 4262 1746 4308
61 194 78 455 42 646 -110 579 -533 1014 -1104 1135 -111 24 -340 34 -442 20z
m402 -484 c341 -87 610 -368 684 -714 24 -113 22 -294 -5 -406 -15 -62 -532
-1344 -1682 -4170 -914 -2245 -1675 -4114 -1691 -4153 l-31 -73 -33 100 c-58
172 -134 298 -262 432 -97 101 -183 166 -302 227 -337 173 -712 177 -1053 11
-61 -30 -78 -35 -74 -22 12 44 3343 8217 3377 8287 130 264 400 456 708 505
93 15 256 4 364 -24z m-5350 -8877 c29 -6 90 -29 136 -51 139 -66 249 -191
303 -345 26 -75 36 -222 20 -305 -14 -68 -420 -1089 -479 -1202 -63 -121 -188
-227 -328 -278 -82 -30 -253 -37 -344 -13 -151 39 -299 153 -373 286 -71 126
-94 290 -62 427 14 60 420 1084 463 1168 75 147 222 265 383 308 65 18 208 20
281 5z m1872 -1030 c61 -17 1575 -627 1629 -656 66 -36 132 -111 170 -191 30
-62 32 -75 32 -173 0 -101 -1 -108 -38 -181 -82 -167 -263 -262 -439 -231 -59
10 -1542 599 -1661 659 -71 36 -143 112 -180 192 -30 63 -32 74 -32 177 0 99
3 116 28 169 52 112 136 188 251 228 58 20 180 24 240 7z m-509 -1202 c66 -15
1555 -610 1648 -660 147 -78 236 -257 209 -421 -38 -232 -238 -383 -470 -356
-43 6 -255 86 -813 310 -415 166 -790 319 -835 340 -121 58 -196 150 -230 280
-57 222 90 456 316 506 72 16 103 16 175 1z m-2238 -386 c37 -12 87 -26 111
-32 23 -5 40 -14 38 -18 -10 -15 -515 -1261 -540 -1331 -50 -137 -72 -345 -51
-469 l7 -43 -32 18 c-17 11 -60 48 -95 83 -134 134 -197 326 -166 507 9 47 94
272 273 720 l261 652 63 -33 c35 -18 93 -43 131 -54z m2549 -1130 c428 -172
804 -325 834 -339 75 -35 154 -116 193 -199 30 -64 32 -75 32 -178 0 -99 -3
-116 -27 -168 -31 -66 -112 -156 -172 -191 -70 -41 -149 -59 -240 -54 -79 5
-102 13 -871 323 -434 174 -807 326 -828 337 -86 43 -159 131 -197 235 -19 53
-22 77 -18 156 3 83 8 103 37 161 54 106 167 198 278 226 21 5 74 8 119 6 80
-2 84 -4 860 -315z m-253 -1300 c362 -145 623 -255 653 -275 173 -117 230
-345 134 -536 -42 -83 -107 -145 -198 -188 -72 -34 -83 -37 -172 -37 l-95 0
-595 239 c-327 131 -619 252 -649 270 -95 56 -168 163 -191 284 -34 172 61
362 222 443 77 39 126 49 216 44 68 -3 114 -20 675 -244z"/>
<path d="M9140 20141 c-79 -24 -157 -100 -179 -173 -17 -56 -15 -139 4 -186
32 -75 481 -855 517 -897 127 -146 362 -110 446 68 25 52 29 142 11 198 -23
69 -493 883 -535 925 -62 63 -177 91 -264 65z"/>
<path d="M7608 17427 c-139 -39 -228 -179 -198 -311 30 -136 69 -167 341 -273
600 -234 596 -233 703 -192 109 40 187 167 172 278 -9 66 -54 150 -101 186
-48 36 -762 313 -827 320 -24 3 -64 -1 -90 -8z"/>
<path d="M18515 16544 c-72 -19 -947 -310 -976 -325 -20 -10 -53 -37 -73 -60
-115 -134 -73 -337 88 -422 32 -17 57 -21 116 -21 69 1 113 13 531 152 251 82
474 159 495 170 107 55 164 189 130 305 -22 76 -70 136 -136 170 -54 27 -135
41 -175 31z"/>
<path d="M7825 14675 c-5 -2 -226 -74 -489 -161 l-480 -156 -52 -53 c-54 -54
-84 -121 -84 -190 0 -100 69 -205 162 -246 100 -44 119 -40 646 134 261 86
490 166 509 178 64 40 123 149 123 229 0 90 -69 199 -155 242 -37 19 -154 34
-180 23z"/>
<path d="M17119 13747 c-90 -34 -142 -87 -174 -176 -38 -110 6 -242 103 -306
20 -13 204 -88 407 -166 330 -127 376 -142 430 -142 78 1 142 31 199 94 52 58
71 116 64 202 -8 98 -55 170 -137 211 -25 13 -201 83 -391 156 -369 143 -422
156 -501 127z"/>
<path d="M15813 11591 c-40 -10 -112 -52 -140 -83 -29 -31 -60 -102 -68 -158
-5 -33 -1 -61 12 -100 10 -30 126 -244 257 -475 257 -450 284 -489 372 -519
209 -71 402 103 358 324 -9 43 -497 896 -536 937 -59 61 -174 94 -255 74z"/>
</g>
</svg>
