<?xml version="1.0" standalone="no"?>
<!DOCTYPE svg PUBLIC "-//W3C//DTD SVG 20010904//EN"
 "http://www.w3.org/TR/2001/REC-SVG-20010904/DTD/svg10.dtd">
<svg version="1.0" xmlns="http://www.w3.org/2000/svg"
 viewBox="0 0 2600.000000 2600.000000"
 preserveAspectRatio="xMidYMid meet">
<metadata>
Created by potrace 1.15, written by Peter Selinger 2001-2017
</metadata>
<g transform="translate(0.000000,2600.000000) scale(0.100000,-0.100000)"
fill="#FFFFFF" stroke="none">
<path d="M7195 22343 c-335 -27 -703 -176 -945 -383 -68 -58 -79 -64 -260
-130 -80 -29 -146 -54 -148 -55 -2 -2 420 -1131 938 -2510 517 -1380 938
-2510 936 -2513 -3 -2 -69 1 -148 8 -368 30 -773 -52 -1133 -230 -426 -211
-765 -550 -927 -930 -82 -191 -113 -354 -105 -548 24 -583 481 -1019 1168
-1117 137 -19 387 -19 541 1 408 52 833 237 1143 495 314 262 513 578 591 934
23 109 23 332 0 440 -10 47 -321 890 -756 2050 l-739 1970 47 43 c154 140 418
274 650 329 158 37 427 44 599 14 214 -36 401 -100 628 -213 218 -110 419
-170 625 -187 396 -33 804 106 1145 390 120 100 132 115 71 88 -220 -97 -553
-53 -901 120 -362 180 -680 430 -1100 867 -462 479 -582 590 -810 742 -348
232 -761 353 -1110 325z"/>
<path d="M16330 19054 c-234 -12 -488 -55 -710 -119 -340 -99 -686 -278 -980
-505 -124 -96 -386 -358 -488 -487 -695 -881 -829 -2075 -346 -3082 203 -423
486 -773 859 -1063 561 -437 1322 -661 2025 -598 896 82 1677 536 2182 1270
332 482 508 1051 508 1646 0 472 -94 879 -300 1299 -406 826 -1148 1397 -2057
1584 -189 39 -507 64 -693 55z"/>
<path d="M12904 15668 c-141 -147 -5472 -6130 -5527 -6203 -141 -187 -227
-426 -227 -629 0 -170 59 -387 156 -576 56 -110 157 -268 221 -347 19 -23 33
-46 31 -51 -1 -5 -57 -59 -123 -119 -279 -256 -512 -556 -655 -845 -215 -433
-243 -832 -88 -1244 65 -175 200 -382 357 -554 l60 -65 165 164 164 164 -70
81 c-436 502 -407 1022 92 1646 85 106 313 341 382 394 l38 28 92 -87 c404
-378 775 -577 1123 -601 224 -16 471 61 682 212 45 33 1472 1301 3173 2819
l3092 2760 -59 6 c-32 4 -110 12 -173 19 -691 69 -1385 397 -1889 893 -558
550 -881 1222 -959 2001 l-17 176 -41 -42z"/>
<path d="M17680 10119 c0 -9 -1377 -3960 -1382 -3965 -3 -2 -32 21 -64 53
-276 274 -646 448 -1049 493 -311 34 -624 -28 -871 -173 -118 -69 -263 -211
-328 -322 -161 -276 -153 -621 21 -933 171 -305 515 -574 898 -701 191 -64
295 -82 500 -88 201 -6 345 12 500 62 303 98 536 299 634 547 16 40 268 771
561 1623 292 853 535 1553 538 1557 6 6 3081 -1058 3110 -1076 7 -4 -673
-1984 -784 -2283 l-15 -42 -36 40 c-56 62 -209 187 -303 248 -308 199 -724
305 -1069 273 -507 -48 -873 -306 -986 -697 -161 -556 286 -1198 1000 -1434
193 -64 295 -82 500 -88 141 -4 205 -2 288 11 385 61 696 267 827 549 28 59
1713 4888 1707 4893 -5 5 -4153 1447 -4174 1452 -13 2 -23 3 -23 1z"/>
</g>
</svg>
