<?xml version="1.0" standalone="no"?>
<!DOCTYPE svg PUBLIC "-//W3C//DTD SVG 20010904//EN"
 "http://www.w3.org/TR/2001/REC-SVG-20010904/DTD/svg10.dtd">
<svg version="1.0" xmlns="http://www.w3.org/2000/svg"
 viewBox="0 0 2600.000000 2600.000000"
 preserveAspectRatio="xMidYMid meet">
<metadata>
Created by potrace 1.15, written by Peter Selinger 2001-2017
</metadata>
<g transform="translate(0.000000,2600.000000) scale(0.100000,-0.100000)"
fill="#FFFFFF" stroke="none">
<path d="M18175 18339 c-114 -33 -182 -194 -131 -313 19 -47 165 -198 222
-232 117 -69 270 -21 330 105 26 52 24 145 -3 196 -29 54 -199 221 -245 240
-40 16 -125 19 -173 4z"/>
<path d="M18175 17140 l-960 -960 83 -83 c45 -45 82 -87 82 -92 0 -6 -897
-907 -1993 -2003 l-1993 -1993 -85 45 c-244 130 -539 225 -849 273 -143 21
-517 24 -660 5 -528 -73 -1008 -296 -1382 -640 -105 -97 -68 -84 -620 -212
-1131 -260 -1714 -524 -2138 -966 -455 -475 -757 -1042 -875 -1644 -45 -231
-50 -292 -50 -605 1 -323 13 -443 71 -700 157 -702 544 -1378 1122 -1961 619
-625 1331 -1028 2082 -1178 921 -184 1864 50 2610 647 367 294 574 549 765
942 195 399 315 790 520 1689 l57 250 65 70 c177 191 321 400 433 629 351 714
344 1511 -18 2245 l-66 133 1997 1997 1997 1997 85 -85 85 -85 960 960 960
960 -663 663 -662 662 -960 -960z m1327 3 c197 -197 358 -362 358 -368 0 -6
-297 -307 -660 -670 l-660 -660 -365 365 -365 365 662 662 c365 365 665 663
668 663 3 0 166 -161 362 -357z m-1619 -1631 l187 -187 -2255 -2255 -2255
-2255 -192 193 -193 192 2250 2250 c1237 1238 2255 2250 2260 2250 6 0 95 -84
198 -188z m-5461 -3597 c131 -19 288 -58 403 -100 104 -37 255 -105 255 -114
0 -3 -111 -117 -247 -253 l-248 -248 490 -490 490 -490 251 251 250 250 43
-90 c97 -211 162 -467 183 -723 28 -349 -43 -725 -198 -1048 -97 -201 -206
-361 -379 -554 -61 -68 -106 -129 -121 -163 -30 -68 -75 -236 -159 -603 -111
-481 -198 -783 -310 -1070 -149 -383 -312 -648 -526 -856 -911 -882 -2162
-1066 -3320 -488 -696 347 -1331 957 -1717 1649 -143 256 -278 604 -335 865
-190 862 6 1693 560 2382 238 296 427 450 757 614 334 166 703 285 1326 429
630 146 660 156 789 279 356 337 797 540 1271 586 123 11 361 4 492 -15z"/>
<path d="M11819 10640 c-220 -37 -415 -137 -570 -292 -327 -327 -398 -817
-178 -1226 82 -153 224 -301 376 -391 l91 -53 -33 -47 c-217 -306 -231 -701
-34 -993 80 -118 221 -243 349 -308 150 -77 329 -101 457 -61 184 56 442 267
574 468 121 185 257 525 311 778 32 154 32 411 -1 564 -26 124 -71 268 -116
371 -29 67 -33 88 -38 200 -14 275 -102 489 -281 677 -152 160 -331 259 -546
303 -102 21 -270 25 -361 10z m359 -443 c194 -68 347 -233 397 -432 19 -75 19
-212 0 -293 -49 -209 -216 -384 -425 -446 -324 -96 -679 105 -765 434 -23 87
-23 237 -1 314 33 111 83 196 165 276 133 131 267 183 451 176 79 -3 123 -10
178 -29z"/>
<path d="M8515 8580 l-400 -400 1173 -1173 1172 -1172 402 403 403 402 -1170
1170 c-643 643 -1172 1170 -1175 1170 -3 0 -185 -180 -405 -400z m2045 -2045
l-105 -105 -875 875 -875 875 105 105 105 105 875 -875 875 -875 -105 -105z"/>
<path d="M17655 17811 c-80 -26 -137 -90 -156 -177 -11 -48 -10 -62 6 -112 15
-48 32 -71 112 -154 114 -116 165 -143 254 -135 63 6 102 23 143 63 70 70 89
175 49 264 -29 65 -205 234 -258 249 -43 12 -118 13 -150 2z"/>
<path d="M17093 17266 c-117 -55 -164 -197 -104 -314 11 -20 63 -80 118 -133
105 -103 135 -119 223 -119 156 1 267 177 206 325 -23 55 -180 212 -241 241
-66 31 -134 31 -202 0z"/>
<path d="M11010 15920 l0 -1249 -42 16 c-66 24 -239 29 -318 8 -236 -60 -439
-250 -457 -428 -20 -193 147 -314 397 -286 155 18 288 79 391 180 64 64 101
121 138 218 l26 66 3 929 3 928 37 -7 c57 -10 210 -86 279 -139 196 -148 313
-395 313 -660 0 -153 -60 -377 -159 -592 -28 -61 -51 -114 -51 -118 0 -3 20
-6 44 -6 44 0 45 1 80 59 57 93 153 298 185 396 48 145 64 238 64 375 1 151
-13 213 -83 355 -70 142 -128 214 -356 440 -210 208 -261 272 -324 409 -46 97
-68 178 -77 280 l-6 76 -43 0 -44 0 0 -1250z"/>
<path d="M20313 16249 c-53 -10 -91 -30 -124 -66 -62 -66 -80 -141 -54 -229
15 -53 28 -70 118 -160 81 -80 112 -104 151 -117 67 -23 112 -21 171 7 64 29
110 82 130 148 19 64 19 62 -1 129 -14 46 -31 69 -117 156 -121 123 -178 151
-274 132z"/>
<path d="M19730 15704 c-84 -36 -134 -116 -134 -214 0 -87 21 -124 131 -231
96 -95 130 -116 198 -126 95 -13 204 51 240 139 22 54 22 132 0 184 -20 50
-187 220 -240 245 -49 23 -146 24 -195 3z"/>
<path d="M19206 15176 c-79 -30 -146 -128 -146 -216 0 -75 36 -134 146 -240
126 -121 187 -143 295 -105 116 41 175 168 138 299 -12 44 -157 201 -224 244
-49 31 -150 40 -209 18z"/>
</g>
</svg>
