<?xml version="1.0" standalone="no"?>
<!DOCTYPE svg PUBLIC "-//W3C//DTD SVG 20010904//EN"
 "http://www.w3.org/TR/2001/REC-SVG-20010904/DTD/svg10.dtd">
<svg version="1.0" xmlns="http://www.w3.org/2000/svg"
 viewBox="0 0 2600.000000 2604.000000"
 preserveAspectRatio="xMidYMid meet">
<metadata>
Created by potrace 1.13, written by Peter Selinger 2001-2015
</metadata>
<g transform="translate(0.000000,2604.000000) scale(0.100000,-0.100000)"
fill="#FFFFFF" stroke="none">
<path d="M14080 22943 c0 -406 7 -3330 15 -6498 13 -5278 19 -8494 16 -8537
-1 -12 -21 2 -68 49 -229 224 -526 366 -908 434 -150 27 -541 37 -734 20 -656
-61 -1536 -327 -2046 -621 -854 -490 -1447 -1331 -1591 -2255 -26 -163 -26
-583 -1 -726 100 -574 358 -983 787 -1250 218 -135 492 -227 825 -276 151 -22
599 -25 780 -5 563 62 1267 261 1695 478 856 433 1513 1284 1700 2198 45 218
53 317 49 601 -6 423 -3 831 10 1325 16 594 16 4226 1 5235 -13 875 -26 6085
-15 6085 4 0 53 -44 109 -97 125 -121 357 -315 609 -510 470 -364 714 -548
872 -658 273 -190 402 -292 531 -420 127 -126 145 -149 564 -725 264 -362 431
-582 638 -839 220 -273 348 -477 506 -803 243 -501 385 -995 461 -1593 60
-481 62 -1028 4 -1550 -133 -1205 -556 -2439 -1217 -3545 -164 -275 -430 -660
-615 -887 -37 -46 -64 -83 -61 -83 3 0 47 35 97 77 455 383 875 831 1203 1284
728 1003 1182 2196 1344 3529 38 311 51 535 57 922 19 1291 -181 2223 -712
3315 -473 974 -1276 2144 -2009 2930 -760 814 -1614 2263 -2301 3908 l-92 220
-252 3 -251 2 0 -737z"/>
</g>
</svg>
