<?xml version="1.0" standalone="no"?>
<!DOCTYPE svg PUBLIC "-//W3C//DTD SVG 20010904//EN"
 "http://www.w3.org/TR/2001/REC-SVG-20010904/DTD/svg10.dtd">
<svg version="1.0" xmlns="http://www.w3.org/2000/svg"
 viewBox="0 0 2604.000000 2604.000000"
 preserveAspectRatio="xMidYMid meet">
<metadata>
Created by potrace 1.13, written by Peter Selinger 2001-2015
</metadata>
<g transform="translate(0.000000,2604.000000) scale(0.100000,-0.100000)"
fill="#FFFFFF" stroke="none">
<path d="M14047 19243 c2 -2529 8 -6087 12 -7908 5 -1820 6 -3314 4 -3318 -3
-5 -42 27 -87 71 -275 267 -619 424 -1096 498 -163 26 -617 26 -815 1 -389
-51 -763 -144 -1172 -293 -609 -221 -968 -445 -1353 -840 -537 -552 -892
-1284 -1011 -2079 -29 -199 -37 -589 -15 -778 60 -517 206 -851 464 -1058 344
-277 814 -418 1482 -445 728 -29 1813 198 2360 493 480 259 894 639 1207 1108
304 455 487 951 554 1495 8 60 11 196 8 370 -7 458 -4 929 10 1450 17 663 19
4457 3 5700 -23 1727 -32 3705 -32 6928 l0 3202 -264 0 -264 0 5 -4597z m-292
-11453 c185 -18 345 -43 345 -54 0 -37 -66 -327 -105 -459 -209 -723 -598
-1390 -1110 -1903 -289 -290 -553 -493 -895 -686 -623 -354 -1283 -545 -2165
-629 -123 -11 -905 -25 -929 -16 -13 5 -10 18 15 89 216 592 576 1254 964
1773 307 410 682 796 1032 1062 662 503 1367 774 2168 833 139 10 533 4 680
-10z"/>
</g>
</svg>
