<?xml version="1.0" standalone="no"?>
<!DOCTYPE svg PUBLIC "-//W3C//DTD SVG 20010904//EN"
 "http://www.w3.org/TR/2001/REC-SVG-20010904/DTD/svg10.dtd">
<svg version="1.0" xmlns="http://www.w3.org/2000/svg"
 viewBox="0 0 2600.000000 2604.000000"
 preserveAspectRatio="xMidYMid meet">
<metadata>
Created by potrace 1.13, written by Peter Selinger 2001-2015
</metadata>
<g transform="translate(0.000000,2604.000000) scale(0.100000,-0.100000)"
fill="#FFFFFF" stroke="none">
<path d="M13639 24205 c-326 -62 -702 -274 -1061 -601 -111 -101 -388 -390
-454 -474 -420 -533 -657 -1203 -750 -2120 -21 -212 -30 -838 -15 -1095 54
-925 232 -1910 517 -2855 l46 -154 -29 -20 c-153 -111 -489 -398 -728 -622
-1038 -975 -1906 -2320 -2264 -3509 -134 -443 -193 -832 -192 -1270 0 -378 32
-645 117 -990 223 -902 840 -1798 1669 -2427 506 -383 1144 -677 1720 -792
375 -75 896 -111 1260 -87 244 16 366 35 593 92 294 74 426 84 476 33 17 -16
115 -315 190 -574 322 -1120 406 -2024 246 -2644 -61 -236 -155 -397 -400
-687 -310 -365 -696 -607 -1099 -689 -442 -89 -948 -1 -1388 244 -51 28 -93
53 -93 56 0 3 21 18 46 34 283 179 562 462 608 616 42 143 46 455 7 602 -43
164 -107 280 -219 399 -180 192 -475 314 -835 348 -106 10 -110 10 -240 -23
-367 -95 -621 -241 -776 -446 -206 -273 -231 -615 -79 -1060 48 -141 166 -382
250 -513 l63 -97 230 -114 c493 -245 930 -385 1401 -451 158 -23 511 -30 674
-15 571 52 1101 265 1510 606 93 77 270 256 346 349 290 355 456 829 505 1440
15 187 6 653 -15 855 -65 592 -201 1204 -397 1780 -39 113 -71 211 -72 218 -1
7 56 37 143 73 196 81 535 248 710 348 544 312 996 710 1292 1136 202 291 352
629 433 980 75 324 84 758 24 1100 -57 318 -209 741 -363 1014 -135 239 -257
401 -440 590 -510 521 -1204 815 -2111 892 -188 15 -619 13 -825 -6 -150 -13
-339 -37 -471 -61 -31 -5 -38 -3 -42 12 -22 72 -557 2095 -557 2104 0 6 79 95
177 198 938 993 1688 2021 2152 2949 161 322 174 360 252 743 110 543 161
1017 161 1515 1 310 -8 469 -43 735 -60 467 -197 929 -380 1280 -71 134 -206
341 -276 420 -27 30 -76 93 -108 139 -171 242 -386 406 -622 477 -75 23 -111
27 -243 30 -105 2 -179 -1 -231 -11z m806 -880 c123 -32 297 -130 399 -225
202 -189 306 -530 276 -906 -28 -350 -113 -665 -352 -1299 -130 -345 -173
-447 -284 -665 -218 -433 -495 -842 -839 -1240 -233 -270 -1380 -1425 -1389
-1400 -18 49 -82 299 -111 435 -106 493 -150 909 -149 1415 1 337 13 527 55
810 162 1107 668 2002 1497 2647 186 145 489 339 647 414 70 34 154 38 250 14z
m-1816 -8914 c144 -552 260 -1005 259 -1006 -2 -2 -55 -31 -118 -65 -1045
-566 -1648 -1323 -1720 -2160 -9 -112 -5 -222 20 -520 46 -533 312 -973 756
-1248 328 -204 791 -333 1239 -346 128 -4 137 -4 60 4 -247 23 -499 164 -747
416 -259 263 -433 570 -484 854 -20 112 -20 329 0 450 53 325 224 674 514
1054 137 178 227 259 405 366 87 52 201 122 253 156 l93 61 15 -51 c8 -28 287
-1069 621 -2313 597 -2227 606 -2263 590 -2293 -63 -122 -440 -204 -1115 -241
-385 -21 -633 -2 -905 71 -258 68 -449 142 -750 290 -463 227 -775 441 -1066
730 -249 247 -408 467 -549 755 -259 532 -333 1103 -239 1850 38 298 86 516
176 790 258 788 798 1664 1568 2545 307 350 835 885 855 864 4 -5 126 -461
269 -1013z m1861 -1811 c651 -82 1194 -447 1543 -1035 100 -168 159 -307 200
-470 88 -346 118 -573 118 -888 0 -217 -11 -337 -47 -517 -70 -350 -240 -705
-466 -975 -197 -236 -474 -457 -743 -594 -148 -75 -195 -93 -200 -78 -12 32
-1225 4500 -1225 4512 0 17 125 37 370 59 73 6 358 -3 450 -14z"/>
</g>
</svg>
