<?xml version="1.0" standalone="no"?>
<!DOCTYPE svg PUBLIC "-//W3C//DTD SVG 20010904//EN"
 "http://www.w3.org/TR/2001/REC-SVG-20010904/DTD/svg10.dtd">
<svg version="1.0" xmlns="http://www.w3.org/2000/svg"
 viewBox="0 0 2600.000000 2600.000000"
 preserveAspectRatio="xMidYMid meet">
<metadata>
Created by potrace 1.15, written by Peter Selinger 2001-2017
</metadata>
<g transform="translate(0.000000,2600.000000) scale(0.100000,-0.100000)"
fill="#FFFFFF" stroke="none">
<path d="M11980 22590 c-1599 -107 -3208 -835 -4346 -1965 -719 -714 -1166
-1507 -1293 -2293 -61 -373 -47 -815 40 -1245 100 -499 300 -945 597 -1332 79
-102 251 -286 370 -395 537 -492 1305 -800 1992 -800 1057 0 2338 743 2731
1584 86 185 119 337 119 549 0 477 -195 993 -533 1412 -83 103 -278 292 -385
373 -229 174 -495 299 -754 353 -147 30 -426 44 -630 31 -260 -17 -375 -41
-718 -147 -173 -54 -316 -76 -536 -82 -424 -12 -691 56 -855 217 -113 112
-159 235 -159 432 0 201 66 400 216 648 433 718 1381 1419 2443 1805 802 292
1758 413 2451 309 432 -64 893 -251 1250 -507 713 -511 1263 -1340 1640 -2477
341 -1025 520 -2221 537 -3590 7 -563 -4 -767 -63 -1195 -383 -2755 -2550
-5854 -6247 -8933 -1119 -932 -2526 -1955 -3523 -2562 -245 -150 -339 -215
-430 -303 -86 -82 -131 -158 -120 -202 16 -62 83 -103 209 -129 136 -28 171
-24 439 58 966 296 1868 660 2878 1162 1847 917 3658 2146 5248 3561 645 574
1323 1254 1866 1873 1827 2080 2932 4211 3195 6165 39 288 53 481 58 810 26
1588 -332 2979 -1040 4045 -700 1053 -1755 1831 -3100 2286 -776 262 -1561
411 -2507 474 -208 14 -884 21 -1040 10z"/>
<path d="M22275 20584 c-115 -18 -209 -39 -288 -66 -663 -221 -1060 -886 -941
-1576 74 -428 355 -807 747 -1006 207 -105 400 -150 642 -150 235 1 418 45
630 151 136 68 228 136 351 258 440 436 540 1093 252 1646 -128 246 -364 478
-613 602 -188 93 -368 137 -590 142 -88 2 -173 1 -190 -1z"/>
<path d="M22308 14790 c-117 -11 -184 -25 -313 -66 -218 -69 -407 -187 -572
-357 -262 -270 -396 -600 -396 -977 0 -229 46 -424 149 -630 158 -315 448
-573 774 -688 184 -64 257 -76 470 -77 152 0 214 4 280 18 566 121 982 538
1106 1107 26 120 27 419 1 540 -61 287 -187 520 -392 725 -236 237 -534 375
-875 405 -63 5 -122 9 -130 9 -8 -1 -54 -5 -102 -9z"/>
</g>
</svg>
